<svg width="773" height="772" viewBox="0 0 773 772" fill="none" xmlns="http://www.w3.org/2000/svg">
<path d="M162.229 295.675C160.065 299.288 155.535 300.817 151.639 301.596C146.661 302.616 141.513 302.886 136.473 303.333L133.543 304.051C132.989 304.222 132.474 304.501 132.027 304.871C131.581 305.241 131.212 305.696 130.942 306.208C130.672 306.721 130.506 307.282 130.454 307.86C130.401 308.436 130.464 309.018 130.637 309.571C132.45 315.801 134.943 321.812 138.073 327.497L133.435 332.129C132.121 330.353 132.059 327.242 130.297 327.543C128.604 325.853 126.594 325.027 124.515 327.289C120.449 331.728 121.106 340.953 127.081 343.501L125.744 350.148C125.282 352.471 124.029 354.564 122.197 356.069C120.364 357.573 118.067 358.397 115.695 358.4L116.723 350.534C109.766 354.046 101.874 346.45 102.422 340.189C102.778 335.896 101.804 332.932 98.6269 329.821C98.4182 329.612 99.6937 328.84 99.5004 328.632C98.6037 325.922 98.4801 322.757 99.369 320.966C100.915 317.77 105.468 315.902 103.373 312.412C102.454 310.891 101.783 309.234 101.387 307.502C100.966 305.206 101.043 302.847 101.612 300.583C102.182 298.319 103.23 296.203 104.687 294.378C107.779 290.673 112.804 291.669 116.908 290.356C121.91 288.812 124.221 283.462 129.454 281.81C132.059 280.984 134.471 281.362 137.076 281.957C139.279 282.466 141.459 283.038 143.623 283.717C145.788 284.396 147.689 284.96 149.807 284.327C152.606 283.555 154.762 280.945 157.816 280.922C159.339 280.888 160.83 281.363 162.052 282.273C164.309 286.326 164.324 292.209 162.229 295.675Z" fill="#6629DE"/>
<path d="M66.563 400.205C66.563 400.205 -17.5935 307.503 106.342 261.245C113.528 258.613 121.018 256.896 128.635 256.134C148.416 254.034 192.145 246.569 197.184 221.356" stroke="#9870E9" stroke-width="4.11" stroke-miterlimit="10"/>
<path d="M419.839 270.433V270.408" stroke="#CCDDE2" stroke-width="4.11" stroke-miterlimit="10"/>
<path d="M199.024 437.347V437.323" stroke="black" stroke-width="4.11" stroke-miterlimit="10"/>
<path d="M133.227 331.512C132.403 330.09 131.422 328.764 130.305 327.56C128.612 325.869 126.602 325.043 124.523 327.305C120.457 331.744 121.114 340.969 127.089 343.517L125.752 350.164C125.29 352.487 124.037 354.58 122.205 356.084C120.372 357.589 118.075 358.413 115.703 358.416" stroke="black" stroke-width="4.11" stroke-linecap="round" stroke-linejoin="round"/>
<path d="M111.961 387.829C112.301 385.25 113.144 378.48 113.956 372.026C114.729 366.043 115.416 360.284 115.687 358.385L116.723 350.534" stroke="black" stroke-width="4.11" stroke-linecap="round" stroke-linejoin="round"/>
<path d="M159.686 310.467C159.686 310.467 149.815 310.954 147.906 319.114" stroke="black" stroke-width="4.11" stroke-miterlimit="10"/>
<path d="M163.273 332.029C165.963 331.96 169.457 331.566 170.725 328.841L163.922 321.345C162.263 319.508 161.281 317.161 161.14 314.69C160.869 310.545 161.356 303.967 157.383 299.59" stroke="black" stroke-width="4.11" stroke-miterlimit="10"/>
<path d="M157.456 321.653C158.57 320.422 158.625 318.661 157.58 317.717C156.535 316.773 154.785 317.006 153.672 318.237C152.558 319.467 152.502 321.229 153.547 322.173C154.592 323.116 156.342 322.884 157.456 321.653Z" fill="black"/>
<path d="M156.788 381.268L151.663 356.456" stroke="black" stroke-width="4.11" stroke-miterlimit="10"/>
<path d="M286.706 492.937L253.675 519.91C293.415 580.435 263.338 591.544 263.338 591.544C257.503 592.66 251.612 593.451 245.69 593.914C216.966 595.983 187.499 588.58 163.822 571.997C115.896 538.415 74.1538 471.205 96.4162 412.687C98.2892 407.738 100.578 402.955 103.257 398.39C105.566 394.422 108.506 390.855 111.961 387.829C118.009 382.541 125.457 379.11 133.41 377.947C141.363 376.785 149.483 377.94 156.795 381.275C159.594 382.551 162.242 384.136 164.688 385.999C177.202 395.564 188.581 409.159 198.39 423.426C207.1 436.327 214.938 449.796 221.851 463.74C223.76 467.546 225.492 471.143 227.022 474.439C240.898 468.835 252.531 459.316 263.353 449.033C250.266 473.428 286.706 492.937 286.706 492.937Z" fill="#353642"/>
<path d="M263.593 512.668C262.959 513.155 262.302 513.664 261.645 514.15" stroke="black" stroke-width="4.11" stroke-miterlimit="10"/>
<path d="M165.94 410.125C174.7 426.877 183.462 443.661 192.222 460.475C198.831 473.166 210.001 481.002 225.731 474.988C242.846 468.442 256.651 455.928 269.421 443.174C282.191 430.421 295.131 418.223 313.567 414.934C337.399 410.681 359.947 423.65 376.18 440.04C377.43 441.29 378.22 442.924 378.423 444.678C378.626 446.432 378.231 448.204 377.301 449.705C376.705 450.666 375.908 451.487 374.965 452.112C374.022 452.738 372.956 453.153 371.838 453.329C370.719 453.506 369.577 453.44 368.487 453.135C367.397 452.831 366.385 452.296 365.521 451.566C357.829 445.012 345.315 435.531 336.611 435.408" stroke="black" stroke-width="4.11" stroke-miterlimit="10"/>
<path d="M312.864 457.896C315.539 459.679 319.249 461.655 322.341 461.655" stroke="black" stroke-width="4.11" stroke-miterlimit="10"/>
<path d="M347.139 438.659C352.843 441.477 354.923 449.722 350.896 454.647C345.789 460.975 339.391 466.144 332.127 469.809C324.181 473.769 319.079 471.353 311.256 466.52" stroke="black" stroke-width="4.11" stroke-miterlimit="10"/>
<path d="M333.936 446.047C333.936 446.047 345.237 448.842 344.936 459.796C344.916 460.263 344.832 460.726 344.688 461.17" stroke="black" stroke-width="4.11" stroke-miterlimit="10"/>
<path d="M325.951 452.947C325.951 452.947 341.109 462.728 333.897 468.881" stroke="black" stroke-width="4.11" stroke-miterlimit="10"/>
<path d="M618.771 491.285C600.915 540.299 550.925 541.681 545.205 541.681C547.601 536.64 548.25 527.785 543.002 512.267C546.518 507.14 548.368 501.056 548.303 494.84C548.239 488.626 546.261 482.582 542.638 477.527C542.708 477.466 542.746 477.381 542.808 477.319C545.308 477.167 547.789 476.793 550.221 476.2C558.848 474.146 575.854 469.638 589.351 463.292C598.503 458.976 609.178 465.893 608.397 475.983C608.397 476.115 608.397 476.238 608.351 476.385C610.138 476.384 611.899 476.813 613.484 477.638C615.068 478.462 616.43 479.657 617.454 481.12C618.476 482.583 619.13 484.271 619.36 486.041C619.59 487.81 619.388 489.61 618.771 491.285Z" fill="#9870E9"/>
<path d="M389.63 606.245C383.617 616.551 374.255 625.328 365.211 632.987C333.372 659.899 291.776 673.563 250.034 674.096C208.153 673.563 166.404 659.852 134.417 633.18C33.3469 548.893 51.6129 449.374 67.9619 403.293C68.5377 401.7 69.3172 400.188 70.2809 398.793C71.5592 396.925 73.2187 395.349 75.1505 394.168C77.0824 392.986 79.2423 392.226 81.4895 391.937C90.0698 393.119 97.8616 400.229 96.4857 411.237C96.4857 411.662 96.3156 412.249 96.277 412.673C74.0299 471.191 115.787 538.401 163.683 571.983C185.412 587.215 212.018 594.703 238.455 594.217H238.756C241.024 594.17 243.288 594.066 245.551 593.9C260.4 592.82 274.832 589.268 289.125 584.968C305.899 579.958 322.488 573.882 339.246 569.629C345.137 568.131 351.042 566.687 356.979 565.336C360.405 564.635 363.909 564.393 367.399 564.618C387.984 566.008 402.447 584.289 389.63 606.245Z" fill="#D7E8F0"/>
<path d="M394.717 606.245C388.703 616.551 379.334 625.328 370.29 632.987C337.183 660.995 293.5 674.675 250.011 674.096C208.13 673.563 166.38 659.852 134.394 633.18C33.3473 548.893 51.6133 449.374 67.9622 403.293C68.5381 401.7 69.3175 400.188 70.2812 398.793C71.5595 396.925 73.2191 395.349 75.1509 394.168C77.0827 392.986 79.2433 392.226 81.4896 391.937C90.0699 393.119 97.8618 400.229 96.4858 411.237C96.4858 411.662 96.3158 412.249 96.2771 412.673C74.0303 471.191 115.788 538.401 163.683 571.983C185.412 587.215 212.018 594.703 238.455 594.217H238.756C242.74 594.279 246.701 594.174 250.637 593.9C265.487 592.82 279.911 589.268 294.211 584.968C310.986 579.958 327.574 573.882 344.333 569.629C350.215 568.131 356.129 566.687 362.058 565.336C363.82 564.977 365.604 564.736 367.399 564.618C390.543 563.067 408.569 582.513 394.717 606.245Z" fill="#B99DF0"/>
<path d="M256.992 673.954L267.164 688.329C267.164 688.329 328.718 690.722 362.406 718.962C368.636 724.188 364.91 734.34 356.778 734.34C354.739 734.347 352.764 733.631 351.205 732.318C343.251 725.648 312.864 704.68 244.129 704.047C177.156 703.422 151.469 724.119 144.365 731.661C143.555 732.514 142.579 733.191 141.497 733.652C140.415 734.112 139.25 734.346 138.073 734.34H136.751C128.403 734.34 124.87 723.81 131.464 718.7C159.586 696.86 222.624 689.896 222.624 689.896L233.384 673.684" fill="#353642"/>
<path d="M529.404 594.247C529.404 594.247 548.258 612.134 542.375 667.587C541.946 671.547 540.568 675.344 538.356 678.657L536.307 681.745C532.948 686.77 527.882 690.411 522.045 691.998C509.732 695.356 487.392 703.138 473.594 717.883C467.765 724.128 472.102 734.303 480.651 734.303C482.245 734.308 483.816 733.918 485.223 733.169C486.629 732.42 487.829 731.335 488.714 730.011C494.333 721.565 511.347 703.632 552.386 704.01C598.673 704.435 617.318 722.816 623.293 730.737C624.119 731.841 625.19 732.738 626.424 733.358C627.657 733.977 629.017 734.3 630.397 734.303C632.127 734.299 633.818 733.792 635.264 732.843C636.708 731.894 637.846 730.544 638.534 728.959C639.222 727.374 639.433 725.622 639.14 723.92C638.846 722.217 638.062 720.636 636.882 719.373C618.833 699.787 596.756 692.484 584.573 689.774C578.453 688.456 573.046 684.902 569.415 679.808C566.635 675.878 565.054 671.228 564.862 666.421C564.182 649.229 563.826 607.494 575.491 594.262" fill="#353642"/>
<path d="M289.28 584.99C322.434 568.917 358.417 558.371 393.797 548.443C429.401 538.454 465.354 529.738 501.414 521.547C515.823 518.281 530.363 515.371 544.702 511.689" stroke="black" stroke-width="4.11" stroke-miterlimit="10"/>
<path d="M320.385 461.433H320.409H320.424" stroke="black" stroke-width="4.11" stroke-miterlimit="10"/>
<path d="M316.667 459.341C314.588 461.394 307.167 472.364 305.304 474.333C295.069 485.287 284.198 495.629 272.745 505.306C269.862 507.699 266.809 510.169 263.593 512.67C262.959 513.157 262.302 513.666 261.645 514.153C239.846 530.674 211.4 546.577 185.118 536.386C184.422 536.132 183.742 535.838 183.069 535.537C142.757 517.511 114.582 472.364 112.123 428.785C112.038 427.365 111.992 425.952 111.977 424.554C111.76 412.642 113.523 400.73 124.963 394.446" stroke="black" stroke-width="4.11" stroke-miterlimit="10"/>
<path d="M96.4781 412.518L96.6404 411.252C99.2068 390.702 69.9874 383.769 63.0536 403.293C46.7124 449.366 28.4387 548.861 129.532 633.163C194.781 687.597 300.419 687.975 365.42 632.986C374.464 625.335 383.825 616.542 389.847 606.236C405.083 580.173 381.816 559.275 355.572 565.691" stroke="black" stroke-width="4.11" stroke-miterlimit="10"/>
<path d="M256.992 673.954L267.164 688.329C267.164 688.329 328.718 690.722 362.406 718.962C368.636 724.188 364.91 734.34 356.778 734.34C354.739 734.347 352.764 733.631 351.205 732.318C343.251 725.648 312.864 704.68 244.129 704.047C177.156 703.422 151.469 724.119 144.365 731.661C143.555 732.514 142.579 733.191 141.497 733.652C140.415 734.112 139.25 734.346 138.073 734.34H136.751C128.403 734.34 124.87 723.81 131.464 718.7C159.586 696.86 222.624 689.896 222.624 689.896L233.384 673.684" stroke="black" stroke-width="4.11" stroke-miterlimit="10"/>
<path d="M222.624 462.507C248.427 455.559 259.056 419.205 263.338 394.764" stroke="black" stroke-width="4.11" stroke-miterlimit="10"/>
<path d="M198.367 423.449C205.535 422.512 212.343 419.754 218.139 415.439C223.936 411.125 228.527 405.399 231.475 398.807C232.092 397.495 232.392 396.058 232.351 394.61C232.311 393.162 231.932 391.744 231.243 390.469C228.429 385.266 224.232 379.236 225.229 372.999C225.948 368.598 229.573 365.503 233.732 364.507C235.84 363.955 238.06 363.993 240.148 364.615C241.399 364.969 242.557 365.597 243.535 366.452C244.514 367.308 245.289 368.371 245.806 369.563C246.819 371.933 245.613 374.28 243.75 375.824C241.887 377.368 239.707 377.916 237.435 378.534C237.141 378.619 236.337 378.789 235.448 378.959" stroke="black" stroke-width="4.11" stroke-miterlimit="10"/>
<path d="M544.671 511.674C544.671 511.674 595.535 501.036 605.089 485.711C606.88 482.918 607.996 479.746 608.351 476.447" stroke="black" stroke-width="4.11" stroke-miterlimit="10"/>
<path d="M294.389 485.503C383.106 476.092 483.241 477.482 483.241 477.482H539.438C543.069 477.487 546.689 477.062 550.221 476.216C558.848 474.162 575.854 469.662 589.351 463.308C598.503 458.993 609.178 465.91 608.397 476.007C608.397 476.131 608.397 476.262 608.351 476.409C610.134 476.41 611.89 476.84 613.472 477.662C615.054 478.485 616.413 479.676 617.436 481.135C618.458 482.594 619.113 484.278 619.346 486.043C619.578 487.809 619.381 489.605 618.771 491.278C599.817 543.303 544.671 541.674 544.671 541.674C537.621 541.882 530.587 542.16 523.53 542.523C461.357 545.541 399.734 554.257 339.409 569.643C322.65 573.897 306.061 579.965 289.287 584.983C274.987 589.298 260.539 592.826 245.69 593.907C216.965 595.984 187.499 588.573 163.822 571.99C111.961 535.644 67.3281 459.865 103.257 398.352C115.942 376.643 144.667 370.699 164.687 386C192.925 407.577 215.481 449.613 227.053 474.409" stroke="black" stroke-width="4.11" stroke-miterlimit="10"/>
<path d="M617.596 594.247H494.132" stroke="black" stroke-width="4.11" stroke-miterlimit="10"/>
<path d="M469.211 569.341C469.229 562.741 471.862 556.417 476.534 551.748C481.207 547.081 487.54 544.449 494.148 544.429H617.627C624.237 544.447 630.571 547.078 635.245 551.746C639.919 556.414 642.553 562.74 642.572 569.341" stroke="black" stroke-width="4.11" stroke-miterlimit="10"/>
<path d="M644.999 578.174C645.005 580.287 644.593 582.381 643.785 584.334C642.978 586.288 641.792 588.062 640.296 589.556C638.799 591.049 637.022 592.233 635.066 593.038C633.109 593.843 631.013 594.254 628.897 594.247H482.8C479.143 593.901 475.768 592.136 473.4 589.332C471.033 586.526 469.862 582.906 470.139 579.248C470.417 575.589 472.12 572.186 474.884 569.769C477.648 567.352 481.251 566.115 484.918 566.324H631.015C633.609 566.32 636.165 566.943 638.464 568.141C640.764 569.339 642.738 571.075 644.218 573.202C644.735 574.809 644.999 576.486 644.999 578.174Z" fill="#B99DF0"/>
<path d="M644.999 578.173C645.005 580.286 644.592 582.38 643.785 584.333C642.978 586.286 641.792 588.061 640.296 589.555C638.799 591.049 637.022 592.232 635.066 593.037C633.109 593.842 631.013 594.253 628.897 594.246H482.8C480.657 594.293 478.525 593.912 476.53 593.125C474.537 592.338 472.72 591.161 471.188 589.664C469.655 588.166 468.436 586.378 467.605 584.404C466.774 582.431 466.345 580.311 466.345 578.169C466.345 576.028 466.774 573.908 467.605 571.934C468.436 569.96 469.655 568.172 471.188 566.674C472.72 565.177 474.537 564 476.53 563.213C478.525 562.427 480.657 562.045 482.8 562.092H628.897C632.299 562.091 635.613 563.165 638.365 565.16C641.118 567.156 643.166 569.971 644.218 573.201C644.735 574.808 644.998 576.486 644.999 578.173Z" stroke="black" stroke-width="4.11" stroke-miterlimit="10"/>
<path d="M263.06 394.192L262.766 396.67C262.631 397.795 262.089 398.831 261.242 399.583C260.394 400.336 259.3 400.752 258.166 400.754H242.111C240.977 400.752 239.883 400.336 239.035 399.583C238.188 398.831 237.646 397.795 237.512 396.67L235.44 378.914C236.329 378.744 237.133 378.574 237.427 378.489C239.7 377.872 241.903 377.347 243.742 375.779C245.582 374.212 246.834 371.919 245.798 369.519C245.281 368.327 244.506 367.264 243.527 366.408C242.549 365.552 241.392 364.924 240.14 364.57C238.051 363.948 235.832 363.91 233.724 364.462L233.237 360.231C233.165 359.585 233.231 358.931 233.43 358.311C233.628 357.691 233.955 357.121 234.388 356.636C234.822 356.151 235.354 355.762 235.947 355.496C236.542 355.23 237.186 355.091 237.837 355.09H262.472C263.123 355.092 263.765 355.232 264.359 355.498C264.952 355.765 265.482 356.154 265.915 356.638C266.348 357.123 266.674 357.694 266.872 358.313C267.07 358.932 267.136 359.585 267.064 360.231L266.492 365.056" stroke="black" stroke-width="4.11" stroke-miterlimit="10"/>
<path d="M265.201 376.087L265.177 376.258" stroke="black" stroke-width="4.11" stroke-miterlimit="10"/>
<path d="M263.995 386.287V386.217" stroke="black" stroke-width="4.11" stroke-miterlimit="10"/>
<path d="M264.227 386.284C264.158 386.272 264.087 386.272 264.018 386.284C263.921 386.273 263.822 386.273 263.724 386.284C262.723 386.288 261.759 386.667 261.023 387.346C260.288 388.026 259.835 388.957 259.754 389.954C259.674 390.951 259.971 391.942 260.587 392.731C261.204 393.52 262.094 394.049 263.083 394.212C263.509 394.297 263.948 394.297 264.374 394.212C266.303 393.905 268.065 392.932 269.352 391.464C271.067 388.646 272.259 385.542 272.869 382.301C272.88 382.268 272.88 382.233 272.869 382.2C273.34 379.812 273.52 377.375 273.402 374.943M273.402 374.943C273.402 373.901 273.271 372.867 273.147 371.855C272.911 370.163 272.137 368.592 270.939 367.373C269.74 366.154 268.181 365.352 266.492 365.085C266.407 365.085 266.306 365.085 266.221 365.039C262.975 364.637 258.422 365.865 257.579 369.524C256.806 372.828 260.393 375.661 263.338 375.916C263.338 375.916 264.111 376.016 265.201 376.086C267.381 376.233 271.006 376.209 273.402 374.943ZM273.402 374.943C273.755 374.761 274.086 374.541 274.392 374.287" stroke="black" stroke-width="4.11" stroke-miterlimit="10"/>
<path d="M267.613 376.266H267.079H262.959H261.143C259.914 376.27 258.735 376.743 257.845 377.589C256.954 378.434 256.423 379.588 256.358 380.813C256.297 382.003 256.682 383.173 257.436 384.097C258.19 385.021 259.26 385.633 260.439 385.815C265.773 386.672 271.864 386.85 272.908 382.079" stroke="black" stroke-width="4.11" stroke-miterlimit="10"/>
<path d="M529.404 594.247C529.404 594.247 548.258 612.134 542.375 667.587C541.946 671.547 540.568 675.344 538.356 678.657L536.307 681.745C532.948 686.77 527.882 690.411 522.045 691.998C509.732 695.356 487.392 703.138 473.594 717.883C467.765 724.128 472.102 734.303 480.651 734.303C482.245 734.308 483.816 733.918 485.223 733.169C486.629 732.42 487.829 731.335 488.714 730.011C494.333 721.565 511.347 703.632 552.386 704.01C598.673 704.435 617.318 722.816 623.293 730.737C624.119 731.841 625.19 732.738 626.424 733.358C627.657 733.977 629.017 734.3 630.397 734.303C632.127 734.299 633.818 733.792 635.264 732.843C636.708 731.894 637.846 730.544 638.534 728.959C639.222 727.374 639.433 725.622 639.14 723.92C638.846 722.217 638.062 720.636 636.882 719.373C618.833 699.787 596.756 692.484 584.573 689.774C578.453 688.456 573.046 684.902 569.415 679.808C566.635 675.878 565.054 671.228 564.862 666.421C564.182 649.229 563.826 607.494 575.491 594.262" stroke="black" stroke-width="4.11" stroke-miterlimit="10"/>
<path d="M490.213 464.634V465.885C490.213 474.446 483.303 475.921 477.335 476.068L361.841 478.754C356.778 478.878 352.519 474.462 352.411 468.934V468.703C352.411 463.299 356.399 458.783 361.393 458.667C361.393 458.667 426.008 456.845 476.037 455.471C476.995 458.497 479.314 460.828 482.221 462.658C484.628 464.096 487.411 464.784 490.213 464.634Z" stroke="black" stroke-width="4.11" stroke-miterlimit="10"/>
<path d="M551.605 342.581C551.611 343.99 551.288 345.38 550.662 346.642L499.01 452.39C498.404 453.618 497.537 454.699 496.469 455.556C495.4 456.413 494.157 457.027 492.826 457.354C490.693 457.9 488.435 457.67 486.457 456.706C484.87 455.926 483.535 454.716 482.605 453.214C481.674 451.713 481.185 449.98 481.192 448.214C481.196 447.78 481.227 447.347 481.285 446.917C481.423 445.96 481.71 445.03 482.136 444.161L533.78 338.397C534.713 336.499 536.262 334.972 538.174 334.066C540.087 333.16 542.25 332.927 544.313 333.407C546.375 333.885 548.213 335.048 549.53 336.704C550.845 338.361 551.56 340.413 551.559 342.527L551.605 342.581Z" stroke="black" stroke-width="4.11" stroke-miterlimit="10"/>
<path d="M133.443 332.145C133.381 331.928 133.296 331.72 133.227 331.511C133.157 331.303 133.056 331.064 132.995 330.832" stroke="black" stroke-width="4.11" stroke-linecap="round" stroke-linejoin="round"/>
<path d="M133.443 332.152L135.028 330.562L138.058 327.497" stroke="black" stroke-width="4.11" stroke-linecap="round" stroke-linejoin="round"/>
<path d="M151.276 336.339C151.276 336.339 153.309 342.399 161.078 342.808" stroke="black" stroke-width="4.11" stroke-miterlimit="10"/>
<path d="M116.723 350.533C109.766 354.046 101.873 346.45 102.422 340.189C102.778 335.896 101.804 332.933 98.6269 329.821C98.4182 329.612 98.2249 329.396 98.0394 329.188C96.8296 327.874 96.0435 326.227 95.7815 324.461C95.5194 322.695 95.7946 320.891 96.5707 319.283C98.0162 315.925 101.131 313.956 98.967 310.335C98.017 308.77 97.3236 307.063 96.9108 305.279C96.4787 302.913 96.5599 300.483 97.1481 298.151C97.7364 295.82 98.8178 293.641 100.32 291.761C103.504 287.901 108.691 288.966 112.951 287.615C118.076 285.987 120.472 280.482 125.852 278.792C128.542 277.95 131.039 278.328 133.729 278.938C135.994 279.471 138.266 280.065 140.469 280.76C142.672 281.455 144.682 282.049 146.885 281.393C149.769 280.552 151.987 277.904 155.125 277.881C158.264 277.857 160.676 279.702 162.082 282.281C164.309 286.326 164.324 292.209 162.229 295.698C160.065 299.311 155.535 300.84 151.639 301.62C146.661 302.639 141.513 302.909 136.473 303.357L133.543 304.075C132.429 304.42 131.497 305.192 130.952 306.223C130.407 307.254 130.294 308.458 130.637 309.571C132.449 315.801 134.943 321.813 138.073 327.497" stroke="black" stroke-width="4.11" stroke-miterlimit="10"/>
<path d="M138.058 351.421C138.058 351.421 153.394 362.638 162.137 356.454C170.879 350.27 165.94 332.144 165.94 332.144" stroke="black" stroke-width="4.11" stroke-linecap="round" stroke-linejoin="round"/>
<path d="M246.425 347.346C246.425 347.346 239.908 342.945 244.051 338.452C248.195 333.959 242.676 328.03 242.676 328.03" stroke="black" stroke-width="4.11" stroke-miterlimit="10"/>
<path d="M252.438 348.109C252.438 348.109 256.752 345.199 253.984 342.219C251.217 339.239 254.904 335.271 254.904 335.271" stroke="black" stroke-width="4.11" stroke-miterlimit="10"/>
<path d="M282.16 306.177C329.087 306.177 367.128 268.184 367.128 221.318C367.128 174.453 329.087 136.46 282.16 136.46C235.234 136.46 197.192 174.453 197.192 221.318C197.192 268.184 235.234 306.177 282.16 306.177Z" stroke="#9870E9" stroke-width="4.11" stroke-miterlimit="10"/>
<path d="M282.16 267.922C307.933 267.922 328.826 247.055 328.826 221.316C328.826 195.576 307.933 174.71 282.16 174.71C256.387 174.71 235.494 195.576 235.494 221.316C235.494 247.055 256.387 267.922 282.16 267.922Z" stroke="#B99DF0" stroke-width="4.11" stroke-miterlimit="10"/>
<path d="M282.16 229.306C286.579 229.306 290.161 225.728 290.161 221.315C290.161 216.903 286.579 213.325 282.16 213.325C277.742 213.325 274.16 216.903 274.16 221.315C274.16 225.728 277.742 229.306 282.16 229.306Z" stroke="#B99DF0" stroke-width="4.11" stroke-miterlimit="10"/>
<path d="M298.726 194.637L286.373 214.524" stroke="#B99DF0" stroke-width="4.11" stroke-miterlimit="10"/>
<path d="M282.16 174.71V183.002" stroke="#B99DF0" stroke-width="4.11" stroke-miterlimit="10"/>
<path d="M328.826 221.317H320.957" stroke="#B99DF0" stroke-width="4.11" stroke-miterlimit="10"/>
<path d="M282.16 267.931V259.871" stroke="#B99DF0" stroke-width="4.11" stroke-miterlimit="10"/>
<path d="M235.487 221.317H242.583" stroke="#B99DF0" stroke-width="4.11" stroke-miterlimit="10"/>
<path d="M363.596 362.408C381.056 362.408 395.212 348.272 395.212 330.834C395.212 313.395 381.056 299.259 363.596 299.259C346.135 299.259 331.98 313.395 331.98 330.834C331.98 348.272 346.135 362.408 363.596 362.408Z" fill="#6629DE"/>
<path d="M373.993 320.287C373.547 319.261 372.947 318.308 372.215 317.462C370.962 315.982 369.212 315.008 367.292 314.724C365.373 314.44 363.416 314.865 361.787 315.918C360.725 316.61 359.837 317.537 359.193 318.629C358.55 319.721 358.167 320.946 358.077 322.21C356.412 321.601 354.595 321.548 352.898 322.061C351.202 322.572 349.718 323.622 348.672 325.051C347.624 326.479 347.071 328.208 347.094 329.978C347.117 331.748 347.716 333.462 348.801 334.863C351.066 337.812 354.915 339.749 358.401 340.877C360.23 341.461 362.113 341.859 364.021 342.065C364.987 342.174 370.499 342.915 370.978 342.065C374.418 336.692 376.861 326.849 373.993 320.287Z" fill="white"/>
<g opacity="0.72">
<path opacity="0.72" d="M442.396 317.763C452.01 317.763 459.804 309.98 459.804 300.377C459.804 290.776 452.01 282.992 442.396 282.992C432.782 282.992 424.988 290.776 424.988 300.377C424.988 309.98 432.782 317.763 442.396 317.763Z" fill="#6629DE"/>
<path opacity="0.72" d="M449.948 303.457C450.379 303.018 450.739 302.516 451.014 301.967C451.511 301.02 451.644 299.925 451.389 298.887C451.135 297.85 450.51 296.94 449.631 296.331C449.056 295.935 448.399 295.677 447.708 295.578C447.017 295.479 446.312 295.542 445.65 295.76C445.613 294.786 445.259 293.85 444.643 293.094C444.026 292.339 443.18 291.804 442.232 291.57C441.285 291.337 440.287 291.417 439.389 291.8C438.491 292.182 437.742 292.846 437.255 293.691C436.308 295.603 435.94 297.75 436.196 299.867C436.283 300.912 436.474 301.947 436.768 302.955C436.915 303.472 437.688 306.429 438.214 306.522C441.669 307.101 447.204 306.29 449.948 303.457Z" fill="white"/>
</g>
<path d="M417.45 382.476L409.175 399.952C406.174 406.288 408.885 413.854 415.23 416.851L432.728 425.115C439.073 428.112 446.649 425.404 449.649 419.067L457.924 401.592C460.924 395.255 458.214 387.689 451.869 384.693L434.371 376.429C428.026 373.432 420.45 376.139 417.45 382.476Z" fill="#6629DE"/>
<path d="M453.202 404.651L447.211 417.305C445.954 419.94 443.704 421.972 440.953 422.957C438.201 423.941 435.171 423.799 432.524 422.562L417.327 415.382C414.69 414.125 412.657 411.878 411.673 409.13C410.688 406.382 410.831 403.357 412.071 400.714L412.473 399.865C416.601 396.576 423.735 392.145 426.34 398.174C430.089 406.883 434.967 404.072 441.197 400.429C446.4 397.356 452.646 396.329 453.202 404.651Z" fill="white"/>
<path d="M429.664 391.204C432.247 391.204 434.341 389.113 434.341 386.533C434.341 383.953 432.247 381.863 429.664 381.863C427.082 381.863 424.988 383.953 424.988 386.533C424.988 389.113 427.082 391.204 429.664 391.204Z" fill="white"/>
<path d="M509.453 325.159C510.383 326.852 511.058 328.673 511.455 330.563C512.163 334.02 511.96 337.602 510.866 340.956C509.77 344.311 507.821 347.324 505.209 349.701C503.138 351.53 500.502 352.958 498.407 354.873C496.879 356.19 495.753 357.911 495.16 359.837C495.052 360.495 494.787 361.118 494.387 361.651C493.166 362.963 491.968 360.879 490.909 360.524C489.202 359.97 487.351 360.06 485.707 360.779C481.383 362.584 476.568 362.841 472.077 361.505C467.586 360.17 463.696 357.323 461.066 353.45C458.436 349.577 457.229 344.914 457.648 340.254C458.067 335.592 460.088 331.22 463.367 327.876C466.606 324.58 470.842 322.472 474.962 320.326C478.564 318.419 482.151 316.389 486.062 315.246C495.23 312.506 505.016 317.068 509.453 325.159Z" fill="#6629DE"/>
<path d="M472.535 349.006C474.968 349.006 476.941 347.036 476.941 344.605C476.941 342.175 474.968 340.205 472.535 340.205C470.101 340.205 468.129 342.175 468.129 344.605C468.129 347.036 470.101 349.006 472.535 349.006Z" fill="white"/>
<path d="M484.4 342.667C486.834 342.667 488.806 340.697 488.806 338.266C488.806 335.836 486.834 333.866 484.4 333.866C481.967 333.866 479.994 335.836 479.994 338.266C479.994 340.697 481.967 342.667 484.4 342.667Z" fill="white"/>
<path d="M495.532 336.723C497.965 336.723 499.938 334.753 499.938 332.323C499.938 329.893 497.965 327.922 495.532 327.922C493.098 327.922 491.125 329.893 491.125 332.323C491.125 334.753 493.098 336.723 495.532 336.723Z" fill="white"/>
<path d="M361.192 190.12C361.192 190.12 390.203 279.734 501.878 274.894C538.982 270.262 583.143 274.894 622.466 326.618C682.242 405.3 658.24 492.952 631.077 548.59" stroke="#9870E9" stroke-width="4.11" stroke-miterlimit="10"/>
<g opacity="0.54">
<path opacity="0.54" d="M522.617 225.315C522.508 226.667 522.299 228.009 521.991 229.329L518.513 244.399C517.446 249.031 516.248 253.879 512.939 257.26C506.755 263.56 496.475 262.116 487.879 260.21L466.776 255.531C461.929 254.458 457.005 253.354 452.661 250.953C448.317 248.552 444.544 244.623 443.539 239.767C442.766 236.185 443.594 232.479 444.382 228.913L447.567 214.445C448.626 209.705 449.816 204.703 453.241 201.252C459.34 195.114 469.474 196.512 477.899 198.341L499.512 203.035C512.545 205.845 523.653 211.882 522.617 225.315Z" fill="#6629DE"/>
<path opacity="0.54" d="M493.514 225.717C494.417 226.556 495.085 227.619 495.446 228.797C495.809 229.976 495.854 231.229 495.578 232.43C495.301 233.631 494.712 234.738 493.871 235.641C493.03 236.542 491.965 237.207 490.785 237.568L484.354 239.536L477.922 241.505C476.742 241.865 475.487 241.909 474.285 241.632C473.083 241.355 471.974 240.767 471.071 239.927C470.168 239.087 469.502 238.025 469.14 236.846C468.779 235.668 468.733 234.415 469.01 233.213L470.556 226.667L472.063 220.128C472.338 218.926 472.926 217.818 473.767 216.915C474.608 216.012 475.671 215.346 476.852 214.985C478.032 214.623 479.287 214.579 480.49 214.855C481.693 215.132 482.802 215.721 483.704 216.561L488.628 221.139L493.514 225.717Z" fill="white"/>
</g>
<path d="M66.8489 734.305H734.35" stroke="black" stroke-width="4.11" stroke-miterlimit="10"/>
</svg>
