<svg width="64" height="64" viewBox="0 0 64 64" fill="none" xmlns="http://www.w3.org/2000/svg">
<path d="M32 34V50H12V34H32ZM32 30H12C10.9391 30 9.92172 30.4214 9.17157 31.1716C8.42143 31.9217 8 32.9391 8 34V50C8 51.0609 8.42143 52.0783 9.17157 52.8284C9.92172 53.5786 10.9391 54 12 54H32C33.0609 54 34.0783 53.5786 34.8284 52.8284C35.5786 52.0783 36 51.0609 36 50V34C36 32.9391 35.5786 31.9217 34.8284 31.1716C34.0783 30.4214 33.0609 30 32 30ZM54 12V22H34V12H54ZM54 8H34C32.9391 8 31.9217 8.42143 31.1716 9.17157C30.4214 9.92172 30 10.9391 30 12V22C30 23.0609 30.4214 24.0783 31.1716 24.8284C31.9217 25.5786 32.9391 26 34 26H54C55.0609 26 56.0783 25.5786 56.8284 24.8284C57.5786 24.0783 58 23.0609 58 22V12C58 10.9391 57.5786 9.92172 56.8284 9.17157C56.0783 8.42143 55.0609 8 54 8ZM54 34V44H44V34H54ZM54 30H44C42.9391 30 41.9217 30.4214 41.1716 31.1716C40.4214 31.9217 40 32.9391 40 34V44C40 45.0609 40.4214 46.0783 41.1716 46.8284C41.9217 47.5786 42.9391 48 44 48H54C55.0609 48 56.0783 47.5786 56.8284 46.8284C57.5786 46.0783 58 45.0609 58 44V34C58 32.9391 57.5786 31.9217 56.8284 31.1716C56.0783 30.4214 55.0609 30 54 30ZM22 12V22H12V12H22ZM22 8H12C10.9391 8 9.92172 8.42143 9.17157 9.17157C8.42143 9.92172 8 10.9391 8 12V22C8 23.0609 8.42143 24.0783 9.17157 24.8284C9.92172 25.5786 10.9391 26 12 26H22C23.0609 26 24.0783 25.5786 24.8284 24.8284C25.5786 24.0783 26 23.0609 26 22V12C26 10.9391 25.5786 9.92172 24.8284 9.17157C24.0783 8.42143 23.0609 8 22 8Z" fill="#6629DE"/>
</svg>
