<svg width="64" height="64" viewBox="0 0 64 64" fill="none" xmlns="http://www.w3.org/2000/svg">
<path d="M4.57153 20C4.57153 21.0609 4.99296 22.0783 5.74311 22.8284C6.49325 23.5786 7.51067 24 8.57153 24C9.6324 24 10.6498 23.5786 11.4 22.8284C12.1501 22.0783 12.5715 21.0609 12.5715 20C12.5715 18.9391 12.1501 17.9217 11.4 17.1716C10.6498 16.4214 9.6324 16 8.57153 16C7.51067 16 6.49325 16.4214 5.74311 17.1716C4.99296 17.9217 4.57153 18.9391 4.57153 20ZM6.85725 26.048V47.4286C6.85725 50.005 7.88071 52.4758 9.7025 54.2976C11.5243 56.1194 13.9951 57.1429 16.5715 57.1429H47.4287C50.0051 57.1429 52.4759 56.1194 54.2977 54.2976C56.1195 52.4758 57.143 50.005 57.143 47.4286V16.5714C57.143 13.995 56.1195 11.5242 54.2977 9.7024C52.4759 7.88061 50.0051 6.85715 47.4287 6.85715H16.5715C14.4683 6.85645 12.4216 7.53838 10.7391 8.80046C9.05661 10.0625 7.82917 11.8366 7.24125 13.856C8.42256 13.601 9.65227 13.6906 10.7841 14.1143C11.2665 12.9785 12.0725 12.0098 13.1016 11.329C14.1308 10.6482 15.3376 10.2854 16.5715 10.2857H47.4287C49.0958 10.2857 50.6945 10.948 51.8733 12.1268C53.0522 13.3056 53.7144 14.9044 53.7144 16.5714V47.4286C53.7144 49.0957 53.0522 50.6945 51.8733 51.8732C50.6945 53.052 49.0958 53.7143 47.4287 53.7143H16.5715C14.9045 53.7143 13.3057 53.052 12.1269 51.8732C10.9481 50.6945 10.2858 49.0957 10.2858 47.4286V26.0503C9.16504 26.368 7.97802 26.368 6.85725 26.0503M22.2858 25.1429C21.8312 25.1429 21.3951 25.3235 21.0736 25.645C20.7521 25.9665 20.5715 26.4025 20.5715 26.8571C20.5715 27.3118 20.7521 27.7478 21.0736 28.0693C21.3951 28.3908 21.8312 28.5714 22.2858 28.5714H41.7144C42.169 28.5714 42.6051 28.3908 42.9266 28.0693C43.2481 27.7478 43.4287 27.3118 43.4287 26.8571C43.4287 26.4025 43.2481 25.9665 42.9266 25.645C42.6051 25.3235 42.169 25.1429 41.7144 25.1429H22.2858ZM20.5715 36C20.5715 35.5453 20.7521 35.1093 21.0736 34.7878C21.3951 34.4663 21.8312 34.2857 22.2858 34.2857H35.4287C35.8833 34.2857 36.3194 34.4663 36.6409 34.7878C36.9624 35.1093 37.143 35.5453 37.143 36C37.143 36.4547 36.9624 36.8907 36.6409 37.2122C36.3194 37.5337 35.8833 37.7143 35.4287 37.7143H22.2858C21.8312 37.7143 21.3951 37.5337 21.0736 37.2122C20.7521 36.8907 20.5715 36.4547 20.5715 36Z" fill="#6629DE"/>
</svg>
