<svg width="64" height="64" viewBox="0 0 64 64" fill="none" xmlns="http://www.w3.org/2000/svg">
<path d="M53.06 16.94L43.06 6.94C42.779 6.65862 42.3977 6.50035 42 6.5H22C21.0717 6.5 20.1815 6.86875 19.5251 7.52513C18.8687 8.1815 18.5 9.07174 18.5 10V14.5H14C13.0717 14.5 12.1815 14.8687 11.5251 15.5251C10.8687 16.1815 10.5 17.0717 10.5 18V54C10.5 54.9283 10.8687 55.8185 11.5251 56.4749C12.1815 57.1312 13.0717 57.5 14 57.5H42C42.9283 57.5 43.8185 57.1312 44.4749 56.4749C45.1312 55.8185 45.5 54.9283 45.5 54V49.5H50C50.9283 49.5 51.8185 49.1312 52.4749 48.4749C53.1312 47.8185 53.5 46.9283 53.5 46V18C53.4996 17.6023 53.3414 17.221 53.06 16.94ZM42.5 54C42.5 54.1326 42.4473 54.2598 42.3536 54.3536C42.2598 54.4473 42.1326 54.5 42 54.5H14C13.8674 54.5 13.7402 54.4473 13.6464 54.3536C13.5527 54.2598 13.5 54.1326 13.5 54V18C13.5 17.8674 13.5527 17.7402 13.6464 17.6464C13.7402 17.5527 13.8674 17.5 14 17.5H33.3775L42.5 26.6225V54ZM50.5 46C50.5 46.1326 50.4473 46.2598 50.3536 46.3536C50.2598 46.4473 50.1326 46.5 50 46.5H45.5V26C45.4996 25.6023 45.3414 25.221 45.06 24.94L35.06 14.94C34.779 14.6586 34.3977 14.5003 34 14.5H21.5V10C21.5 9.86739 21.5527 9.74021 21.6464 9.64645C21.7402 9.55268 21.8674 9.5 22 9.5H41.3775L50.5 18.6225V46ZM35.5 38C35.5 38.3978 35.342 38.7794 35.0607 39.0607C34.7794 39.342 34.3978 39.5 34 39.5H22C21.6022 39.5 21.2206 39.342 20.9393 39.0607C20.658 38.7794 20.5 38.3978 20.5 38C20.5 37.6022 20.658 37.2206 20.9393 36.9393C21.2206 36.658 21.6022 36.5 22 36.5H34C34.3978 36.5 34.7794 36.658 35.0607 36.9393C35.342 37.2206 35.5 37.6022 35.5 38ZM35.5 46C35.5 46.3978 35.342 46.7794 35.0607 47.0607C34.7794 47.342 34.3978 47.5 34 47.5H22C21.6022 47.5 21.2206 47.342 20.9393 47.0607C20.658 46.7794 20.5 46.3978 20.5 46C20.5 45.6022 20.658 45.2206 20.9393 44.9393C21.2206 44.658 21.6022 44.5 22 44.5H34C34.3978 44.5 34.7794 44.658 35.0607 44.9393C35.342 45.2206 35.5 45.6022 35.5 46Z" fill="#6629DE"/>
</svg>
