<svg width="37" height="37" viewBox="0 0 37 37" fill="none" xmlns="http://www.w3.org/2000/svg">
<rect x="0.198975" y="0.612305" width="36" height="36" rx="8" fill="#F3F3F3"/>
<path d="M18.199 9.6123C21.794 9.6123 23.5917 9.61211 24.8865 10.4688C25.4646 10.8513 25.96 11.3466 26.3425 11.9248C27.1992 13.2195 27.199 15.0172 27.199 18.6123C27.199 22.2074 27.1992 24.0051 26.3425 25.2998C25.96 25.878 25.4646 26.3733 24.8865 26.7559C23.5917 27.6125 21.794 27.6123 18.199 27.6123C14.6039 27.6123 12.8062 27.6125 11.5115 26.7559C10.9333 26.3733 10.438 25.878 10.0554 25.2998C9.19878 24.0051 9.19897 22.2074 9.19897 18.6123C9.19897 15.0172 9.19878 13.2195 10.0554 11.9248C10.438 11.3466 10.9333 10.8513 11.5115 10.4688C12.8062 9.61211 14.6039 9.6123 18.199 9.6123ZM18.199 13.9531C15.6257 13.9531 13.5399 16.0391 13.5398 18.6123C13.5398 21.1856 15.6257 23.2715 18.199 23.2715C20.7722 23.2714 22.8582 21.1856 22.8582 18.6123C22.858 16.0391 20.7721 13.9532 18.199 13.9531ZM18.199 15.5293C19.9015 15.5294 21.2819 16.9098 21.282 18.6123C21.282 20.3149 19.9016 21.6952 18.199 21.6953C16.4963 21.6953 15.116 20.315 15.116 18.6123C15.1161 16.9097 16.4964 15.5293 18.199 15.5293ZM23.0427 12.624C22.4382 12.624 21.9472 13.1142 21.947 13.7188C21.947 14.3234 22.4381 14.8135 23.0427 14.8135C23.6472 14.8132 24.1375 14.3232 24.1375 13.7188C24.1373 13.1144 23.6471 12.6243 23.0427 12.624Z" fill="#9747FF"/>
</svg>
