<svg width="37" height="37" viewBox="0 0 37 37" fill="none" xmlns="http://www.w3.org/2000/svg">
<rect x="0.198975" y="0.612305" width="36" height="36" rx="8" fill="#F3F3F3"/>
<path d="M9.19897 12.0321C9.19897 11.4549 9.40168 10.9787 9.80708 10.6035C10.2125 10.2284 10.7395 10.0408 11.3882 10.0408C12.0252 10.0408 12.5407 10.2255 12.9345 10.5949C13.3399 10.9758 13.5426 11.4722 13.5426 12.0841C13.5426 12.6382 13.3457 13.0999 12.9519 13.4693C12.5465 13.8503 12.0136 14.0408 11.3534 14.0408H11.336C10.699 14.0408 10.1835 13.8503 9.78971 13.4693C9.39588 13.0884 9.19897 12.6093 9.19897 12.0321ZM9.42484 27.1836V15.6165H13.282V27.1836H9.42484ZM15.4191 27.1836H19.2762V20.7247C19.2762 20.3207 19.3225 20.009 19.4152 19.7897C19.5773 19.3972 19.8235 19.0653 20.1536 18.794C20.4837 18.5227 20.8978 18.3871 21.3959 18.3871C22.6932 18.3871 23.3418 19.2587 23.3418 21.0018V27.1836H27.199V20.5516C27.199 18.8431 26.7936 17.5473 25.9828 16.6641C25.1719 15.781 24.1005 15.3395 22.7685 15.3395C21.2743 15.3395 20.1102 15.9802 19.2762 17.2615V17.2962H19.2588L19.2762 17.2615V15.6165H15.4191C15.4422 15.9859 15.4538 17.1346 15.4538 19.0624C15.4538 20.9903 15.4422 23.6973 15.4191 27.1836Z" fill="#9747FF"/>
</svg>
