<svg width="64" height="64" viewBox="0 0 64 64" fill="none" xmlns="http://www.w3.org/2000/svg">
<path d="M32.0001 61.3333V53.3333M32.0001 53.3333C26.3421 53.3333 20.9159 51.0857 16.9151 47.085C12.9144 43.0842 10.6667 37.658 10.6667 32M32.0001 53.3333C37.658 53.3333 43.0843 51.0857 47.085 47.085C51.0858 43.0842 53.3334 37.658 53.3334 32M32.0001 45.3333C24.6667 45.3333 18.6667 39.5413 18.6667 32.4587V15.5413C18.6667 8.45867 24.6667 2.66667 32.0001 2.66667C39.3334 2.66667 45.3334 8.45867 45.3334 15.5413V32.4587C45.3334 39.5413 39.3334 45.3333 32.0001 45.3333Z" stroke="#6629DE" stroke-width="4" stroke-linecap="round" stroke-linejoin="round"/>
</svg>
