<svg width="64" height="64" viewBox="0 0 64 64" fill="none" xmlns="http://www.w3.org/2000/svg">
<path d="M45.3333 37.3333C46.0406 37.3333 46.7189 37.0524 47.219 36.5523C47.7191 36.0522 48 35.3739 48 34.6667C48 33.9594 47.7191 33.2811 47.219 32.781C46.7189 32.281 46.0406 32 45.3333 32C44.6261 32 43.9478 32.281 43.4477 32.781C42.9476 33.2811 42.6667 33.9594 42.6667 34.6667C42.6667 35.3739 42.9476 36.0522 43.4477 36.5523C43.9478 37.0524 44.6261 37.3333 45.3333 37.3333ZM45.3333 48C46.0406 48 46.7189 47.7191 47.219 47.219C47.7191 46.7189 48 46.0406 48 45.3333C48 44.6261 47.7191 43.9478 47.219 43.4477C46.7189 42.9476 46.0406 42.6667 45.3333 42.6667C44.6261 42.6667 43.9478 42.9476 43.4477 43.4477C42.9476 43.9478 42.6667 44.6261 42.6667 45.3333C42.6667 46.0406 42.9476 46.7189 43.4477 47.219C43.9478 47.7191 44.6261 48 45.3333 48ZM34.6667 34.6667C34.6667 35.3739 34.3857 36.0522 33.8856 36.5523C33.3855 37.0524 32.7072 37.3333 32 37.3333C31.2928 37.3333 30.6145 37.0524 30.1144 36.5523C29.6143 36.0522 29.3333 35.3739 29.3333 34.6667C29.3333 33.9594 29.6143 33.2811 30.1144 32.781C30.6145 32.281 31.2928 32 32 32C32.7072 32 33.3855 32.281 33.8856 32.781C34.3857 33.2811 34.6667 33.9594 34.6667 34.6667ZM34.6667 45.3333C34.6667 46.0406 34.3857 46.7189 33.8856 47.219C33.3855 47.7191 32.7072 48 32 48C31.2928 48 30.6145 47.7191 30.1144 47.219C29.6143 46.7189 29.3333 46.0406 29.3333 45.3333C29.3333 44.6261 29.6143 43.9478 30.1144 43.4477C30.6145 42.9476 31.2928 42.6667 32 42.6667C32.7072 42.6667 33.3855 42.9476 33.8856 43.4477C34.3857 43.9478 34.6667 44.6261 34.6667 45.3333ZM18.6667 37.3333C19.3739 37.3333 20.0522 37.0524 20.5523 36.5523C21.0524 36.0522 21.3333 35.3739 21.3333 34.6667C21.3333 33.9594 21.0524 33.2811 20.5523 32.781C20.0522 32.281 19.3739 32 18.6667 32C17.9594 32 17.2811 32.281 16.781 32.781C16.281 33.2811 16 33.9594 16 34.6667C16 35.3739 16.281 36.0522 16.781 36.5523C17.2811 37.0524 17.9594 37.3333 18.6667 37.3333ZM18.6667 48C19.3739 48 20.0522 47.7191 20.5523 47.219C21.0524 46.7189 21.3333 46.0406 21.3333 45.3333C21.3333 44.6261 21.0524 43.9478 20.5523 43.4477C20.0522 42.9476 19.3739 42.6667 18.6667 42.6667C17.9594 42.6667 17.2811 42.9476 16.781 43.4477C16.281 43.9478 16 44.6261 16 45.3333C16 46.0406 16.281 46.7189 16.781 47.219C17.2811 47.7191 17.9594 48 18.6667 48Z" fill="#6629DE"/>
<path fill-rule="evenodd" clip-rule="evenodd" d="M18.6666 4.66667C19.197 4.66667 19.7057 4.87738 20.0808 5.25245C20.4559 5.62753 20.6666 6.13623 20.6666 6.66667V8.70133C22.4319 8.66667 24.3759 8.66667 26.5146 8.66667H37.4826C39.6239 8.66667 41.5679 8.66667 43.3333 8.70133V6.66667C43.3333 6.13623 43.544 5.62753 43.9191 5.25245C44.2941 4.87738 44.8028 4.66667 45.3333 4.66667C45.8637 4.66667 46.3724 4.87738 46.7475 5.25245C47.1226 5.62753 47.3333 6.13623 47.3333 6.66667V8.872C48.0266 8.92533 48.6835 8.99289 49.3039 9.07467C52.4293 9.496 54.9599 10.3813 56.9573 12.376C58.9519 14.3733 59.8373 16.904 60.2586 20.0293C60.6666 23.0693 60.6666 26.9493 60.6666 31.8507V37.4827C60.6666 42.384 60.6666 46.2667 60.2586 49.304C59.8373 52.4293 58.9519 54.96 56.9573 56.9573C54.9599 58.952 52.4293 59.8373 49.3039 60.2587C46.2639 60.6667 42.3839 60.6667 37.4826 60.6667H26.5199C21.6186 60.6667 17.7359 60.6667 14.6986 60.2587C11.5733 59.8373 9.0426 58.952 7.04527 56.9573C5.0506 54.96 4.16527 52.4293 3.74394 49.304C3.33594 46.264 3.33594 42.384 3.33594 37.4827V31.8507C3.33594 26.9493 3.33594 23.0667 3.74394 20.0293C4.16527 16.904 5.0506 14.3733 7.04527 12.376C9.0426 10.3813 11.5733 9.496 14.6986 9.07467C15.3208 8.99289 15.9777 8.92533 16.6693 8.872V6.66667C16.6693 6.13669 16.8796 5.62839 17.2541 5.25339C17.6286 4.8784 18.1366 4.66737 18.6666 4.66667ZM15.2266 13.04C12.5466 13.4 10.9999 14.0773 9.87194 15.2053C8.74394 16.3333 8.0666 17.88 7.7066 20.56C7.64616 21.0133 7.5946 21.4924 7.55194 21.9973H56.4479C56.4053 21.4924 56.3537 21.0124 56.2933 20.5573C55.9333 17.8773 55.2559 16.3307 54.1279 15.2027C52.9999 14.0747 51.4533 13.3973 48.7706 13.0373C46.0319 12.6693 42.4186 12.664 37.3333 12.664H26.6666C21.5813 12.664 17.9706 12.672 15.2266 13.04ZM7.33327 32C7.33327 29.7227 7.33327 27.7413 7.36794 26H56.6319C56.6666 27.7413 56.6666 29.7227 56.6666 32V37.3333C56.6666 42.4187 56.6613 46.032 56.2933 48.7733C55.9333 51.4533 55.2559 53 54.1279 54.128C52.9999 55.256 51.4533 55.9333 48.7706 56.2933C46.0319 56.6613 42.4186 56.6667 37.3333 56.6667H26.6666C21.5813 56.6667 17.9706 56.6613 15.2266 56.2933C12.5466 55.9333 10.9999 55.256 9.87194 54.128C8.74394 53 8.0666 51.4533 7.7066 48.7707C7.3386 46.032 7.33327 42.4187 7.33327 37.3333V32Z" fill="#6629DE"/>
</svg>
