<svg width="37" height="37" viewBox="0 0 37 37" fill="none" xmlns="http://www.w3.org/2000/svg">
<rect x="0.198975" y="0.612305" width="36" height="36" rx="8" fill="#F3F3F3"/>
<path d="M21.226 11.3135V11.3103H22.07L22.3784 11.3719C22.584 11.4119 22.7707 11.4643 22.9384 11.5291C23.1061 11.5939 23.2684 11.6696 23.4253 11.756C23.5822 11.8425 23.7245 11.9305 23.8522 12.0202C23.9788 12.1088 24.0924 12.2029 24.193 12.3023C24.2926 12.4027 24.4478 12.4287 24.6588 12.3801C24.8698 12.3314 25.0971 12.2639 25.3405 12.1775C25.584 12.091 25.8248 11.9938 26.0628 11.8857C26.3009 11.7776 26.4459 11.709 26.4978 11.6799C26.5487 11.6496 26.5757 11.6334 26.579 11.6312L26.5822 11.6264L26.5984 11.6183L26.6147 11.6102L26.6309 11.6021L26.6471 11.5939L26.6504 11.5891L26.6552 11.5858L26.6601 11.5826L26.6634 11.5777L26.6796 11.5729L26.6958 11.5696L26.6926 11.5939L26.6877 11.6183L26.6796 11.6426L26.6715 11.6669L26.6634 11.6831L26.6552 11.6993L26.6471 11.7236C26.6417 11.7398 26.6363 11.7614 26.6309 11.7885C26.6255 11.8155 26.5741 11.9235 26.4767 12.1126C26.3793 12.3017 26.2576 12.4935 26.1115 12.688C25.9654 12.8825 25.8345 13.0295 25.7187 13.1289C25.6019 13.2294 25.5245 13.2996 25.4866 13.3396C25.4488 13.3807 25.4028 13.4185 25.3487 13.4531L25.2675 13.5065L25.2513 13.5146L25.235 13.5228L25.2318 13.5276L25.2269 13.5309L25.2221 13.5341L25.2188 13.539L25.2026 13.5471L25.1864 13.5552L25.1831 13.56L25.1782 13.5633L25.1734 13.5665L25.1701 13.5714L25.1669 13.5762L25.162 13.5795L25.1571 13.5827L25.1539 13.5876H25.235L25.6895 13.4903C25.9925 13.4255 26.2819 13.3472 26.5579 13.2553L26.9961 13.1094L27.0448 13.0932L27.0691 13.0851L27.0854 13.077L27.1016 13.0689L27.1178 13.0608L27.1341 13.0527L27.1665 13.0478L27.199 13.0446V13.077L27.1909 13.0803L27.1827 13.0851L27.1795 13.09L27.1746 13.0932L27.1698 13.0965L27.1665 13.1013L27.1633 13.1062L27.1584 13.1094L27.1535 13.1127L27.1503 13.1175L27.1471 13.1224L27.1422 13.1256L27.1341 13.1419L27.1259 13.1581L27.1211 13.1613C27.1189 13.1645 27.0502 13.2564 26.9149 13.4368C26.7797 13.6184 26.7066 13.7102 26.6958 13.7124C26.685 13.7156 26.6698 13.7318 26.6504 13.761C26.632 13.7913 26.5173 13.9118 26.3063 14.1225C26.0953 14.3332 25.8886 14.5206 25.6863 14.6849C25.4829 14.8502 25.38 15.0534 25.3779 15.2943C25.3746 15.5342 25.3622 15.8054 25.3405 16.108C25.3189 16.4106 25.2783 16.7374 25.2188 17.0886C25.1593 17.4398 25.0673 17.8369 24.9429 18.2799C24.8185 18.7229 24.667 19.1552 24.4884 19.5766C24.3099 19.998 24.1232 20.3762 23.9285 20.7112C23.7337 21.0462 23.5552 21.3298 23.3928 21.5621C23.2305 21.7944 23.0655 22.0132 22.8978 22.2186C22.7301 22.4239 22.518 22.6551 22.2616 22.9123C22.004 23.1684 21.8634 23.3089 21.8396 23.3337C21.8147 23.3575 21.7086 23.4461 21.5214 23.5995C21.3353 23.754 21.1351 23.9085 20.9209 24.0631C20.7077 24.2165 20.5119 24.3446 20.3333 24.4472C20.1548 24.5499 19.9395 24.6671 19.6873 24.7989C19.4363 24.9318 19.1647 25.055 18.8726 25.1685C18.5804 25.282 18.272 25.3873 17.9474 25.4846C17.6228 25.5818 17.309 25.6575 17.006 25.7115C16.703 25.7655 16.3595 25.8114 15.9753 25.8492L15.3992 25.906V25.9141H14.3442V25.906L14.2062 25.8979C14.1142 25.8925 14.0385 25.8871 13.979 25.8817C13.9195 25.8763 13.6949 25.8465 13.3054 25.7925C12.9158 25.7385 12.6102 25.6845 12.3883 25.6304C12.1665 25.5764 11.8365 25.4737 11.3983 25.3225C10.96 25.1712 10.5851 25.0183 10.2735 24.8638C9.96291 24.7103 9.76814 24.6131 9.68915 24.572C9.61124 24.532 9.52359 24.4823 9.42621 24.4229L9.28013 24.3338L9.2769 24.3289L9.27201 24.3257L9.26714 24.3224L9.2639 24.3176L9.24767 24.3094L9.23144 24.3013L9.22821 24.2965L9.22332 24.2932L9.21845 24.29L9.21521 24.2851L9.21198 24.2803L9.20709 24.277H9.19897V24.2446L9.21521 24.2479L9.23144 24.2527L9.30448 24.2608C9.35317 24.2662 9.48572 24.2743 9.70213 24.2851C9.91855 24.2959 10.1485 24.2959 10.3919 24.2851C10.6354 24.2743 10.8843 24.25 11.1386 24.2122C11.3928 24.1744 11.6931 24.1095 12.0394 24.0177C12.3856 23.9258 12.7038 23.8167 12.9938 23.6903C13.2827 23.5628 13.4882 23.4677 13.6105 23.405C13.7317 23.3434 13.9167 23.2289 14.1656 23.0614L14.5389 22.8102L14.5422 22.8053L14.547 22.8021L14.5519 22.7988L14.5552 22.794L14.5584 22.7891L14.5633 22.7859L14.5682 22.7826L14.5714 22.7778L14.5876 22.7729L14.6038 22.7696L14.6071 22.7534L14.612 22.7372L14.6168 22.734L14.6201 22.7291L14.4902 22.721C14.4037 22.7156 14.3198 22.7102 14.2386 22.7048C14.1575 22.6994 14.0304 22.6751 13.8572 22.6319C13.6841 22.5886 13.4975 22.5238 13.2973 22.4374C13.0971 22.3509 12.9023 22.2483 12.713 22.1294C12.5236 22.0106 12.3867 21.9117 12.3023 21.8328C12.219 21.755 12.1108 21.6448 11.9777 21.5021C11.8457 21.3584 11.731 21.2109 11.6336 21.0597C11.5362 20.9084 11.4432 20.7339 11.3544 20.5361L11.2197 20.2411L11.2116 20.2168L11.2035 20.1925L11.1986 20.1763L11.1954 20.1601L11.2197 20.1633L11.2441 20.1682L11.4226 20.1925C11.5416 20.2087 11.7283 20.2141 11.9826 20.2087C12.2369 20.2033 12.4127 20.1925 12.5101 20.1763C12.6075 20.1601 12.667 20.1493 12.6886 20.1439L12.7211 20.1358L12.7616 20.1277L12.8022 20.1196L12.8055 20.1147L12.8103 20.1115L12.8152 20.1082L12.8185 20.1034L12.786 20.0953L12.7535 20.0872L12.7211 20.0791L12.6886 20.0709L12.6561 20.0628C12.6345 20.0574 12.5966 20.0466 12.5425 20.0304C12.4884 20.0142 12.3424 19.9548 12.1043 19.8521C11.8663 19.7495 11.6769 19.6495 11.5362 19.5523C11.3952 19.4547 11.2607 19.3481 11.1337 19.233C11.0071 19.1163 10.8681 18.9661 10.7166 18.7824C10.5651 18.5987 10.4298 18.3853 10.3108 18.1421C10.1918 17.899 10.1025 17.6667 10.043 17.4452C9.9837 17.225 9.94459 16.9998 9.92613 16.7725L9.8969 16.4322L9.91313 16.4354L9.92936 16.4403L9.94559 16.4484L9.96182 16.4565L9.97805 16.4646L9.99429 16.4727L10.2459 16.5861C10.4136 16.6618 10.6219 16.7266 10.8708 16.7806C11.1196 16.8347 11.2684 16.8644 11.3171 16.8698L11.3901 16.8779H11.5362L11.533 16.873L11.5281 16.8698L11.5232 16.8665L11.52 16.8617L11.5168 16.8568L11.5119 16.8536L11.507 16.8503L11.5038 16.8455L11.4875 16.8374L11.4713 16.8293L11.4681 16.8244L11.4632 16.8212L11.4583 16.8179L11.4551 16.8131L11.4388 16.805L11.4226 16.7968L11.4194 16.792C11.4161 16.7898 11.3696 16.7552 11.2798 16.6883C11.191 16.6202 11.098 16.5321 11.0006 16.4241C10.9032 16.316 10.8058 16.2025 10.7084 16.0837C10.6109 15.9646 10.524 15.8371 10.4487 15.7028C10.373 15.5677 10.2929 15.3959 10.2085 15.1874C10.1252 14.9799 10.0619 14.7708 10.0186 14.5601C9.97536 14.3494 9.95101 14.1414 9.94559 13.9361C9.94019 13.7308 9.94559 13.5552 9.96182 13.4093C9.97805 13.2634 10.0105 13.0986 10.0592 12.9149C10.1079 12.7312 10.1782 12.5367 10.2702 12.3314L10.4082 12.0235L10.4163 11.9992L10.4244 11.9748L10.4293 11.9716L10.4325 11.9667L10.4358 11.9619L10.4406 11.9586L10.4455 11.9619L10.4487 11.9667L10.452 11.9716L10.4569 11.9748L10.4618 11.9781L10.465 11.983L10.4682 11.9878L10.4731 11.9911L10.4812 12.0073L10.4893 12.0235L10.4942 12.0267L10.4974 12.0316L10.7166 12.2747C10.8626 12.4368 11.0358 12.6178 11.2359 12.8177C11.4361 13.0176 11.547 13.1213 11.5687 13.1289C11.5903 13.1375 11.6174 13.1624 11.6498 13.2034C11.6823 13.2434 11.7905 13.3391 11.9744 13.4903C12.1584 13.6416 12.3992 13.8172 12.6967 14.0171C12.9943 14.217 13.3243 14.4142 13.6868 14.6087C14.0493 14.8032 14.4388 14.9788 14.8554 15.1355C15.272 15.2922 15.5642 15.3948 15.7319 15.4434C15.8996 15.4921 16.1864 15.5542 16.5921 15.6298C16.9979 15.7055 17.3036 15.7541 17.5092 15.7757C17.7148 15.7973 17.8554 15.8098 17.9312 15.813L18.0448 15.8162L18.0416 15.7919L18.0367 15.7676L18.0042 15.565C17.9826 15.4299 17.9717 15.2408 17.9717 14.9977C17.9717 14.7546 17.9907 14.5304 18.0286 14.3251C18.0664 14.1198 18.1232 13.9118 18.199 13.701C18.2747 13.4903 18.3489 13.3212 18.4213 13.1937C18.4949 13.0673 18.5912 12.923 18.7102 12.761C18.8293 12.5989 18.9835 12.4314 19.1728 12.2585C19.3622 12.0856 19.5786 11.9316 19.8221 11.7966C20.0655 11.6615 20.2901 11.5588 20.4956 11.4886C20.7012 11.4184 20.8744 11.3724 21.015 11.3508C21.1557 11.3292 21.226 11.3168 21.226 11.3135Z" fill="#9747FF"/>
</svg>
