<svg width="37" height="37" viewBox="0 0 37 37" fill="none" xmlns="http://www.w3.org/2000/svg">
<rect x="0.198975" y="0.612305" width="36" height="36" rx="8" fill="#F3F3F3"/>
<path d="M18.6377 25.5922L14.5755 25.5163C13.2603 25.4899 11.9418 25.5427 10.6523 25.2686C8.69074 24.8591 8.55178 22.8512 8.40637 21.1669C8.20601 18.7991 8.28357 16.3883 8.66168 14.0402C8.87514 12.7227 9.71517 11.9365 11.0142 11.851C15.3996 11.5405 19.8141 11.5773 24.1897 11.7221C24.6519 11.7354 25.1172 11.808 25.5728 11.8906C27.8221 12.2935 27.877 14.5689 28.0228 16.4844C28.1682 18.4196 28.1068 20.3647 27.8289 22.2868C27.6059 23.8782 27.1793 25.2127 25.3789 25.3416C23.1232 25.51 20.9192 25.6456 18.6571 25.6025C18.6572 25.5922 18.6442 25.5922 18.6377 25.5922ZM16.2496 21.5633C17.9495 20.5658 19.6169 19.5851 21.3071 18.5943C19.604 17.5969 17.9397 16.6161 16.2496 15.6254V21.5633Z" fill="#9747FF"/>
</svg>
